<svg width="24" height="24" viewBox="0 0 24 24" fill="none" xmlns="http://www.w3.org/2000/svg">
<path d="M9.61348 14.7599C10.3009 15.1565 10.5369 16.0433 10.1403 16.7287L7.97822 20.4752C7.58161 21.1626 6.69482 21.3986 6.0094 21.0019L6.00736 20.9999C5.3199 20.6033 5.08398 19.7165 5.48059 19.0311L7.64262 15.2847C8.03923 14.6013 8.92399 14.3633 9.61348 14.7599Z" stroke="#12B0C9" stroke-miterlimit="10" stroke-linecap="round" stroke-linejoin="round"/>
<path d="M17.9465 10.4168C16.5533 12.829 13.4678 13.6568 11.0536 12.2636C8.64141 10.8704 7.81362 7.78493 9.20684 5.3707C10.6001 2.95849 13.6855 2.13069 16.0997 3.52392C18.5139 4.91714 19.3397 8.00256 17.9465 10.4168Z" stroke="#12B0C9" stroke-miterlimit="10" stroke-linecap="round" stroke-linejoin="round"/>
<path d="M11.0535 12.2633L9.61353 14.7589" stroke="#12B0C9" stroke-miterlimit="10" stroke-linecap="round" stroke-linejoin="round"/>
</svg>
